<svg xmlns="http://www.w3.org/2000/svg" xmlns:xlink="http://www.w3.org/1999/xlink" width="500" zoomAndPan="magnify" viewBox="0 0 375 374.999991" height="500" preserveAspectRatio="xMidYMid meet" version="1.0"><rect x="-37.5" width="450" fill="none" y="-37.499999" height="449.999989" fill-opacity="1"/><rect x="-37.5" width="450" fill="none" y="-37.499999" height="449.999989" fill-opacity="1"/><rect x="-37.5" width="450" fill="none" y="-37.499999" height="449.999989" fill-opacity="1"/><path fill="#0a131e" d="M 323.199219 193.71875 C 323.449219 120.054688 271.527344 63.074219 203.277344 56.351562 C 183.660156 54.421875 164.746094 57.027344 146.238281 63.410156 C 142.078125 64.84375 137.464844 67 135.402344 61.070312 C 133.503906 55.605469 138.140625 54.148438 142.03125 52.710938 C 221.328125 23.414062 311.957031 71.710938 330.40625 154.144531 C 343.640625 213.242188 326.597656 263.664062 279.121094 301.242188 C 198.941406 364.683594 81.269531 326.113281 52.292969 227.753906 C 51.578125 225.339844 51.121094 222.882812 49.320312 220.996094 C 31.886719 202.699219 31.71875 180.878906 37.410156 158.402344 C 51.949219 101.003906 102.488281 66.355469 161.375 73.167969 C 175.578125 74.8125 188.738281 79.613281 200.03125 88.78125 C 203.257812 91.402344 206.371094 94.285156 207.671875 98.207031 C 209.523438 103.792969 213.632812 105.460938 218.769531 106.617188 C 236.089844 110.511719 253.613281 113.09375 271.203125 115.339844 C 275.261719 115.855469 279.304688 116.441406 283.113281 118.0625 C 287.664062 119.992188 290.566406 123.347656 291.183594 128.230469 C 294.210938 152.050781 291.441406 175.144531 279.84375 196.335938 C 263.875 225.503906 229.078125 239.632812 195.417969 231.148438 C 190.28125 229.851562 188.890625 230.445312 188.4375 235.859375 C 185.515625 270.601562 206.921875 295.445312 241.894531 298.410156 C 257.582031 299.742188 270.335938 296.203125 281.894531 284.558594 C 308.550781 257.71875 322.527344 225.96875 323.199219 193.71875 Z M 134.546875 231.449219 C 131.140625 238.582031 128.964844 246.296875 123.785156 252.585938 C 117.050781 260.765625 110.273438 262.84375 100.277344 259.3125 C 93.792969 257.023438 87.867188 253.707031 82.335938 249.632812 C 78.484375 246.792969 74.558594 244.054688 69.722656 240.597656 C 100.125 313.011719 186.28125 336.921875 240.375 309.585938 C 235.605469 308.871094 231.40625 308.242188 227.203125 307.617188 C 218.960938 304.742188 210.410156 302.160156 203.457031 296.867188 C 181.28125 279.976562 173.375 257.230469 177.910156 230.101562 C 178.640625 225.753906 177.59375 223.738281 174.160156 221.410156 C 164.921875 215.15625 158.292969 206.5625 153.71875 196.417969 C 152.152344 192.933594 151.15625 189.097656 155.511719 187 C 160.234375 184.722656 162.402344 187.910156 164.1875 191.832031 C 168.535156 201.363281 175.066406 209.015625 184.164062 214.449219 C 217.847656 234.558594 264.1875 215.621094 275.855469 176.828125 C 277.417969 171.640625 278.082031 166.179688 279.523438 160.953125 C 280.574219 157.140625 279.460938 155.558594 275.753906 154.027344 C 264.625 149.4375 257.519531 141.320312 257.039062 128.816406 C 256.90625 125.398438 255.605469 124.863281 252.773438 124.367188 C 240.027344 122.152344 227.324219 119.691406 214.601562 117.316406 C 208.804688 115.242188 201.632812 115.230469 199.449219 107.609375 C 197.621094 101.242188 193.039062 97.324219 187.742188 93.996094 C 177.675781 87.679688 166.523438 84.574219 154.8125 83.96875 C 100.007812 81.15625 57.488281 114.265625 47.296875 168.035156 C 44.007812 185.425781 45.765625 201.925781 59.757812 215.234375 C 70.003906 224.976562 80.554688 234.277344 92.339844 242.078125 C 109.355469 253.332031 115.257812 251.367188 121.796875 231.703125 C 129.183594 209.476562 130.824219 186.777344 125.105469 163.878906 C 123.1875 156.191406 120.476562 148.691406 118.109375 141.109375 C 117.003906 137.566406 117.78125 134.53125 121.378906 133.304688 C 124.890625 132.105469 127.550781 133.625 128.769531 137.34375 C 129.539062 139.714844 130.441406 142.046875 131.371094 144.363281 C 135.472656 154.519531 136.621094 165.453125 139.714844 175.875 C 140.265625 194.617188 139.085938 213.191406 134.546875 231.449219 Z M 134.546875 231.449219 " fill-opacity="1" fill-rule="nonzero"/><path fill="#f8c44c" d="M 139.710938 175.890625 C 136.621094 165.472656 135.46875 154.539062 131.363281 144.382812 C 130.433594 142.066406 129.535156 139.734375 128.761719 137.359375 C 127.550781 133.644531 124.890625 132.125 121.375 133.324219 C 117.769531 134.554688 116.992188 137.589844 118.101562 141.128906 C 120.46875 148.710938 123.1875 156.203125 125.101562 163.898438 C 130.816406 186.796875 129.175781 209.496094 121.789062 231.722656 C 115.25 251.386719 109.347656 253.347656 92.332031 242.09375 C 80.542969 234.296875 69.992188 224.996094 59.753906 215.253906 C 45.761719 201.9375 43.992188 185.445312 47.292969 168.054688 C 57.480469 114.285156 100.003906 81.175781 154.804688 83.988281 C 166.519531 84.585938 177.667969 87.699219 187.738281 94.015625 C 193.039062 97.34375 197.621094 101.257812 199.445312 107.628906 C 201.632812 115.242188 208.796875 115.253906 214.597656 117.332031 C 213.96875 125.628906 215.207031 134.140625 212.011719 142.136719 C 205.796875 157.683594 192.488281 162.394531 177.511719 164.503906 C 164.335938 166.355469 150.976562 167.660156 139.710938 175.890625 Z M 185.484375 124.910156 C 178.277344 125.375 172.617188 128.613281 168.539062 134.703125 C 166.320312 138.019531 166.332031 141.261719 169.332031 143.863281 C 172.484375 146.601562 175.933594 145.847656 178.308594 142.769531 C 181.980469 138.003906 185.867188 136.683594 191.144531 140.222656 C 194.382812 142.398438 197.324219 141.117188 199.4375 138.226562 C 201.726562 135.089844 200.757812 132.089844 198.105469 129.734375 C 194.574219 126.617188 190.226562 125.34375 185.484375 124.910156 Z M 185.484375 124.910156 " fill-opacity="1" fill-rule="nonzero"/><path fill="#f8c44c" d="M 134.546875 231.449219 C 137.9375 233.023438 137.835938 236.667969 138.964844 239.425781 C 154.167969 276.460938 182.332031 297.878906 220.472656 307.347656 C 222.609375 307.878906 224.964844 307.550781 227.214844 307.628906 C 231.414062 308.253906 235.617188 308.886719 240.390625 309.597656 C 186.289062 336.933594 100.128906 313.023438 69.738281 240.609375 C 74.570312 244.066406 78.496094 246.800781 82.347656 249.644531 C 87.878906 253.71875 93.808594 257.027344 100.289062 259.324219 C 110.285156 262.855469 117.0625 260.769531 123.796875 252.597656 C 128.964844 246.304688 131.148438 238.582031 134.546875 231.449219 Z M 134.546875 231.449219 " fill-opacity="1" fill-rule="nonzero"/><path fill="#0a131e" d="M 185.484375 124.910156 C 190.226562 125.34375 194.574219 126.617188 198.097656 129.734375 C 200.757812 132.082031 201.726562 135.085938 199.429688 138.226562 C 197.320312 141.117188 194.382812 142.398438 191.136719 140.222656 C 185.859375 136.683594 181.976562 138.003906 178.300781 142.769531 C 175.921875 145.847656 172.46875 146.601562 169.324219 143.863281 C 166.328125 141.261719 166.320312 138.019531 168.535156 134.703125 C 172.617188 128.613281 178.277344 125.367188 185.484375 124.910156 Z M 185.484375 124.910156 " fill-opacity="1" fill-rule="nonzero"/><path fill="#0a131e" d="M 219.828125 209.507812 C 219.035156 212.007812 217.683594 214.027344 214.597656 213.574219 C 211.980469 213.191406 210.511719 211.265625 210.71875 208.8125 C 210.945312 205.976562 213 204.316406 215.871094 204.65625 C 218.410156 204.953125 219.675781 206.835938 219.828125 209.507812 Z M 219.828125 209.507812 " fill-opacity="1" fill-rule="nonzero"/><path fill="#0a131e" d="M 238.144531 197.488281 C 238.066406 200.464844 236.503906 202.265625 233.582031 202.160156 C 231.125 202.074219 229.363281 200.613281 229.378906 197.859375 C 229.390625 194.898438 230.933594 193.140625 233.914062 193.203125 C 236.511719 193.261719 237.945312 194.867188 238.144531 197.488281 Z M 238.144531 197.488281 " fill-opacity="1" fill-rule="nonzero"/><path fill="#0a131e" d="M 199.046875 187.492188 C 202.003906 187.546875 203.699219 188.976562 203.699219 191.984375 C 203.699219 194.675781 202.117188 196.074219 199.527344 196.265625 C 196.839844 196.460938 195.035156 194.886719 194.84375 192.484375 C 194.640625 189.867188 195.910156 187.6875 199.046875 187.492188 Z M 199.046875 187.492188 " fill-opacity="1" fill-rule="nonzero"/></svg>